<?xml version="1.0" encoding="UTF-8" standalone="no"?>
<!-- Generator: Adobe Illustrator 12.0.1, SVG Export Plug-In . SVG Version: 6.00 Build 51448)  -->
<svg
   xmlns:dc="http://purl.org/dc/elements/1.1/"
   xmlns:cc="http://creativecommons.org/ns#"
   xmlns:rdf="http://www.w3.org/1999/02/22-rdf-syntax-ns#"
   xmlns:svg="http://www.w3.org/2000/svg"
   xmlns="http://www.w3.org/2000/svg"
   xmlns:sodipodi="http://sodipodi.sourceforge.net/DTD/sodipodi-0.dtd"
   xmlns:inkscape="http://www.inkscape.org/namespaces/inkscape"
   version="1.1"
   id="Layer_1"
   width="85.137"
   height="37.631"
   viewBox="0 0 85.137 37.631"
   style="overflow:visible;enable-background:new 0 0 85.137 37.631;"
   xml:space="preserve"
   sodipodi:version="0.32"
   inkscape:version="0.46"
   sodipodi:docname="Ozon.svg"
   inkscape:output_extension="org.inkscape.output.svg.inkscape"><metadata
   id="metadata34"><rdf:RDF><cc:Work
       rdf:about=""><dc:format>image/svg+xml</dc:format><dc:type
         rdf:resource="http://purl.org/dc/dcmitype/StillImage" /></cc:Work></rdf:RDF></metadata><defs
   id="defs32"><inkscape:perspective
   sodipodi:type="inkscape:persp3d"
   inkscape:vp_x="0 : 18.8155 : 1"
   inkscape:vp_y="0 : 1000 : 0"
   inkscape:vp_z="85.137001 : 18.8155 : 1"
   inkscape:persp3d-origin="42.568501 : 12.543667 : 1"
   id="perspective36" />
	

	

	
</defs><sodipodi:namedview
   inkscape:window-height="675"
   inkscape:window-width="661"
   inkscape:pageshadow="2"
   inkscape:pageopacity="0.0"
   guidetolerance="10.0"
   gridtolerance="10.0"
   objecttolerance="10.0"
   borderopacity="1.0"
   bordercolor="#666666"
   pagecolor="#ffffff"
   id="base"
   showgrid="false"
   inkscape:zoom="6.3897012"
   inkscape:cx="42.568501"
   inkscape:cy="18.8155"
   inkscape:window-x="220"
   inkscape:window-y="220"
   inkscape:current-layer="Layer_1" />
<path
   id="path5"
   d="M 2.12845,28.46135 C 2.12845,25.751 2.85615,23.6306 4.31155,22.09825 C 5.76695,20.56495 7.64605,19.7983 9.9479,19.7983 C 11.45555,19.7983 12.81405,20.15835 14.02435,20.87845 C 15.23465,21.5995 16.1571,22.6027 16.79265,23.8909 C 17.4282,25.1791 17.74455,26.6402 17.74455,28.2723 C 17.74455,29.92815 17.41015,31.4092 16.7423,32.71545 C 16.07445,34.0217 15.1273,35.0116 13.9018,35.68325 C 12.6763,36.3549 11.35485,36.6912 9.9365,36.6912 C 8.3994,36.6912 7.0257,36.31975 5.8154,35.5778 C 4.6051,34.83585 3.68835,33.82125 3.0642,32.5378 C 2.44005,31.25435 2.12845,29.8949 2.12845,28.46135 z M 4.35525,28.4889 C 4.35525,30.4554 4.8844,32.00485 5.9427,33.13725 C 7.001,34.26965 8.3291,34.8349 9.9251,34.8349 C 11.5515,34.8349 12.89005,34.263 13.9417,33.12015 C 14.9924,31.9773 15.51775,30.35565 15.51775,28.2552 C 15.51775,26.9271 15.29355,25.76715 14.8442,24.7763 C 14.39485,23.78545 13.73745,23.0169 12.872,22.4716 C 12.00655,21.9263 11.03565,21.65365 9.9593,21.65365 C 8.4298,21.65365 7.1131,22.179 6.01015,23.22875 C 4.9072,24.2785 4.35525,26.0322 4.35525,28.4889 z"
   style="fill:#231f20" />
<path
   id="path9"
   d="M 34.76095,9.60385 C 34.76095,6.8935 35.48865,4.7731 36.94405,3.24075 C 38.39945,1.70745 40.2776,0.9408 42.57945,0.9408 C 44.0871,0.9408 45.4456,1.30085 46.6559,2.02095 C 47.8662,2.742 48.78865,3.7452 49.4242,5.0334 C 50.05975,6.3216 50.37705,7.7827 50.37705,9.4148 C 50.37705,11.07065 50.04265,12.5517 49.37385,13.85795 C 48.70505,15.1642 47.75885,16.1541 46.53335,16.82575 C 45.30785,17.4974 43.9864,17.8337 42.56805,17.8337 C 41.03095,17.8337 39.65725,17.46225 38.44695,16.7203 C 37.23665,15.97835 36.3199,14.96375 35.69575,13.6803 C 35.0716,12.39685 34.76095,11.0374 34.76095,9.60385 z M 36.9868,9.6314 C 36.9868,11.5979 37.51595,13.14735 38.57425,14.27975 C 39.63255,15.41215 40.96065,15.9774 42.55665,15.9774 C 44.18305,15.9774 45.5216,15.4055 46.57325,14.26265 C 47.62395,13.1198 48.15025,11.49815 48.15025,9.3977 C 48.15025,8.0696 47.92605,6.90965 47.47575,5.9188 C 47.0264,4.92795 46.369,4.1594 45.50355,3.6141 C 44.6381,3.0688 43.6672,2.79615 42.59085,2.79615 C 41.06135,2.79615 39.74465,3.3215 38.6417,4.37125 C 37.53875,5.421 36.9868,7.17565 36.9868,9.6314 z"
   style="fill:#231f20" />
<path
   style="fill:#231f20"
   d="M 31.47775,10.80655 L 32.28525,12.1831 L 17.5118,20.68655 L 16.70525,19.3081 L 31.47775,10.80655 z"
   id="polygon11" />
<path
   style="fill:#231f20"
   d="M 34.28025,15.69905 L 35.0868,17.0756 L 31.6193,19.11905 L 30.8118,17.69405 L 34.28025,15.69905 z"
   id="polygon13" />
<path
   style="fill:#231f20"
   d="M 28.6743,18.93 L 29.4818,20.355 L 25.96775,22.34905 L 25.16025,20.9706 L 28.6743,18.93 z"
   id="polygon15" />
<path
   style="fill:#231f20"
   d="M 23.02275,22.20655 L 23.83025,23.5831 L 20.3618,25.6256 L 19.55525,24.2006 L 23.02275,22.20655 z"
   id="polygon17" />
<path
   id="path21"
   d="M 67.39345,28.46135 C 67.39345,25.751 68.12115,23.6306 69.57655,22.09825 C 71.03195,20.56495 72.91105,19.7983 75.2129,19.7983 C 76.72055,19.7983 78.08,20.15835 79.28935,20.87845 C 80.4987,21.5995 81.4221,22.6027 82.05765,23.8909 C 82.69225,25.17815 83.00955,26.6402 83.00955,28.2723 C 83.00955,29.92815 82.67515,31.4092 82.0073,32.71545 C 81.3385,34.0217 80.39135,35.0116 79.1668,35.68325 C 77.9413,36.3549 76.6189,36.6912 75.2015,36.6912 C 73.6644,36.6912 72.2907,36.31975 71.0804,35.5778 C 69.8701,34.83585 68.95335,33.82125 68.3292,32.5378 C 67.70505,31.25245 67.39345,29.8949 67.39345,28.46135 z M 69.6193,28.4889 C 69.6193,30.4554 70.14845,32.00485 71.20675,33.13725 C 72.26505,34.26965 73.59315,34.8349 75.18915,34.8349 C 76.81555,34.8349 78.1541,34.263 79.20575,33.12015 C 80.2574,31.9773 80.7818,30.35565 80.7818,28.2552 C 80.7818,26.9271 80.5576,25.76715 80.10825,24.7763 C 79.65795,23.78545 79.00055,23.0169 78.13605,22.4716 C 77.27155,21.9263 76.2997,21.65365 75.22335,21.65365 C 73.69385,21.65365 72.37715,22.179 71.2742,23.22875 C 70.17125,24.2785 69.6193,26.0322 69.6193,28.4889 z"
   style="fill:#231f20" />
<path
   style="fill:#231f20"
   d="M 68.4318,19.3081 L 67.62525,20.68655 L 52.90025,12.1831 L 53.7068,10.80655 L 68.4318,19.3081 z"
   id="polygon23" />
<path
   style="fill:#231f20"
   d="M 65.5818,24.2006 L 64.77525,25.6256 L 61.3068,23.5831 L 62.1143,22.20655 L 65.5818,24.2006 z"
   id="polygon25" />
<path
   style="fill:#231f20"
   d="M 59.9768,20.9706 L 59.1693,22.34905 L 55.65525,20.355 L 56.46275,18.93 L 59.9768,20.9706 z"
   id="polygon27" />
<path
   style="fill:#231f20"
   d="M 54.37275,17.7425 L 53.5643,19.11905 L 50.05025,17.0756 L 50.8568,15.69905 L 54.37275,17.7425 z"
   id="polygon29" />
</svg>